<svg viewBox="0 0 160 42" fill="none" xmlns="http://www.w3.org/2000/svg">
    <path d="M31.0444 26.0739V4.94658H36.8065L47.4486 17.864V4.94658H53.1812V26.0739H47.4486L36.8065 13.1565V26.0739H31.0444Z" fill="white"/>
    <path d="M63.1155 15.5103C63.1155 16.3509 63.2821 17.1261 63.6153 17.8359C63.9485 18.5458 64.3992 19.1622 64.9676 19.6853C65.536 20.2083 66.1925 20.6193 66.9373 20.9182C67.7016 21.1984 68.5052 21.3385 69.3479 21.3385C70.1907 21.3385 70.9844 21.1984 71.7292 20.9182C72.4935 20.6193 73.1599 20.2083 73.7283 19.6853C74.3162 19.1622 74.7768 18.5458 75.11 17.8359C75.4431 17.1261 75.6097 16.3509 75.6097 15.5103C75.6097 14.6696 75.4431 13.8944 75.11 13.1846C74.7768 12.4747 74.3162 11.8583 73.7283 11.3352C73.1599 10.8122 72.4935 10.4106 71.7292 10.1303C70.9844 9.83146 70.1907 9.68202 69.3479 9.68202C68.5052 9.68202 67.7016 9.83146 66.9373 10.1303C66.1925 10.4106 65.536 10.8122 64.9676 11.3352C64.3992 11.8583 63.9485 12.4747 63.6153 13.1846C63.2821 13.8944 63.1155 14.6696 63.1155 15.5103ZM57.0889 15.5103C57.0889 13.9411 57.3927 12.4841 58.0002 11.1391C58.6078 9.77542 59.4506 8.58923 60.5285 7.5805C61.6064 6.57176 62.8901 5.78719 64.3796 5.22679C65.8887 4.6477 67.5448 4.35815 69.3479 4.35815C71.1314 4.35815 72.7777 4.6477 74.2868 5.22679C75.7959 5.78719 77.0894 6.57176 78.1674 7.5805C79.2649 8.58923 80.1175 9.77542 80.725 11.1391C81.3326 12.4841 81.6364 13.9411 81.6364 15.5103C81.6364 17.0794 81.3326 18.5458 80.725 19.9095C80.1175 21.2544 79.2649 22.4313 78.1674 23.44C77.0894 24.4488 75.7959 25.2427 74.2868 25.8217C72.7777 26.3822 71.1314 26.6624 69.3479 26.6624C67.5448 26.6624 65.8887 26.3822 64.3796 25.8217C62.8901 25.2427 61.6064 24.4488 60.5285 23.44C59.4506 22.4313 58.6078 21.2544 58.0002 19.9095C57.3927 18.5458 57.0889 17.0794 57.0889 15.5103Z" fill="white"/>
    <path d="M91.038 21.8148H92.3021C93.7524 21.8148 94.7912 21.6374 95.4184 21.2824C96.0455 20.9275 96.3591 20.3578 96.3591 19.5732C96.3591 18.7886 96.0455 18.2189 95.4184 17.864C94.7912 17.509 93.7524 17.3316 92.3021 17.3316H91.038V21.8148ZM91.038 13.2406H92.0964C93.8994 13.2406 94.801 12.5588 94.801 11.1951C94.801 9.83146 93.8994 9.14963 92.0964 9.14963H91.038V13.2406ZM85.276 4.94658H93.8602C95.8985 4.94658 97.4468 5.41359 98.5052 6.3476C99.5635 7.28161 100.093 8.62659 100.093 10.3825C100.093 11.4473 99.8869 12.3346 99.4753 13.0445C99.0833 13.7356 98.4758 14.3241 97.6526 14.8097C98.4758 14.9592 99.1715 15.1927 99.7399 15.5103C100.328 15.8091 100.798 16.1827 101.151 16.6311C101.523 17.0794 101.788 17.5838 101.945 18.1442C102.102 18.7046 102.18 19.3023 102.18 19.9375C102.18 20.9275 101.994 21.8055 101.621 22.5714C101.269 23.3373 100.759 23.9817 100.093 24.5048C99.4459 25.0278 98.6521 25.4201 97.7114 25.6816C96.7707 25.9432 95.7123 26.0739 94.5364 26.0739H85.276V4.94658Z" fill="white"/>
    <path d="M110.486 15.5103C110.486 16.3509 110.652 17.1261 110.985 17.8359C111.319 18.5458 111.769 19.1622 112.338 19.6853C112.906 20.2083 113.563 20.6193 114.307 20.9182C115.072 21.1984 115.875 21.3385 116.718 21.3385C117.561 21.3385 118.354 21.1984 119.099 20.9182C119.864 20.6193 120.53 20.2083 121.098 19.6853C121.686 19.1622 122.147 18.5458 122.48 17.8359C122.813 17.1261 122.98 16.3509 122.98 15.5103C122.98 14.6696 122.813 13.8944 122.48 13.1846C122.147 12.4747 121.686 11.8583 121.098 11.3352C120.53 10.8122 119.864 10.4106 119.099 10.1303C118.354 9.83146 117.561 9.68202 116.718 9.68202C115.875 9.68202 115.072 9.83146 114.307 10.1303C113.563 10.4106 112.906 10.8122 112.338 11.3352C111.769 11.8583 111.319 12.4747 110.985 13.1846C110.652 13.8944 110.486 14.6696 110.486 15.5103ZM104.459 15.5103C104.459 13.9411 104.763 12.4841 105.37 11.1391C105.978 9.77542 106.821 8.58923 107.899 7.5805C108.976 6.57176 110.26 5.78719 111.75 5.22679C113.259 4.6477 114.915 4.35815 116.718 4.35815C118.501 4.35815 120.148 4.6477 121.657 5.22679C123.166 5.78719 124.46 6.57176 125.537 7.5805C126.635 8.58923 127.488 9.77542 128.095 11.1391C128.703 12.4841 129.006 13.9411 129.006 15.5103C129.006 17.0794 128.703 18.5458 128.095 19.9095C127.488 21.2544 126.635 22.4313 125.537 23.44C124.46 24.4488 123.166 25.2427 121.657 25.8217C120.148 26.3822 118.501 26.6624 116.718 26.6624C114.915 26.6624 113.259 26.3822 111.75 25.8217C110.26 25.2427 108.976 24.4488 107.899 23.44C106.821 22.4313 105.978 21.2544 105.37 19.9095C104.763 18.5458 104.459 17.0794 104.459 15.5103Z" fill="white"/>
    <path d="M34.6205 41.6423H33.8082L32.0815 38.6941H32.061C32.0679 38.852 32.0747 39.0223 32.0815 39.2048C32.0917 39.3838 32.1002 39.5645 32.107 39.747V41.6423H31.5195V37.8834H32.3267L34.0483 40.8105H34.0636C34.0602 40.6701 34.0534 40.5086 34.0432 40.3261C34.0364 40.1436 34.0313 39.9664 34.0279 39.7944V37.8834H34.6205V41.6423Z" fill="#939393"/>
    <path d="M39.4837 41.6423H37.4096V37.8834H39.4837V38.4467H38.0635V39.4048H39.3917V39.9681H38.0635V41.0737H39.4837V41.6423Z" fill="#939393"/>
    <path d="M46.4652 37.8834L45.5201 41.6423H44.7998L44.2225 39.4838C44.2055 39.4136 44.1833 39.3241 44.1561 39.2153C44.1323 39.103 44.1084 38.9959 44.0846 38.8942C44.0641 38.7889 44.0522 38.7099 44.0488 38.6573C44.042 38.7099 44.0284 38.7889 44.0079 38.8942C43.9875 38.9959 43.9654 39.103 43.9415 39.2153C43.9177 39.3241 43.8956 39.4171 43.8751 39.4943L43.3132 41.6423H42.5878L41.6478 37.8834H42.3017L42.8023 40.0261C42.8262 40.1173 42.8483 40.2208 42.8687 40.3367C42.8926 40.4525 42.9147 40.5683 42.9351 40.6841C42.9556 40.7964 42.9709 40.8947 42.9811 40.979C42.9913 40.8877 43.0067 40.7859 43.0271 40.6736C43.0475 40.5578 43.068 40.4455 43.0884 40.3367C43.1122 40.2244 43.1361 40.1296 43.1599 40.0524L43.7321 37.8834H44.3655L44.9479 40.0576C44.9718 40.1384 44.9956 40.2349 45.0194 40.3472C45.0433 40.4595 45.0654 40.5718 45.0859 40.6841C45.1063 40.7964 45.1216 40.8947 45.1318 40.979C45.1421 40.8947 45.1574 40.7964 45.1778 40.6841C45.1982 40.5683 45.2204 40.4542 45.2442 40.3419C45.2681 40.2261 45.2902 40.1208 45.3106 40.0261L45.8113 37.8834H46.4652Z" fill="#939393"/>
    <path d="M53.0598 37.8834C53.5332 37.8834 53.8772 37.9851 54.0918 38.1887C54.3097 38.3888 54.4187 38.6695 54.4187 39.031C54.4187 39.2451 54.3744 39.4452 54.2859 39.6312C54.1973 39.8172 54.0475 39.9681 53.8363 40.084C53.6286 40.1998 53.3459 40.2577 52.9883 40.2577H52.6256V41.6423H51.9717V37.8834H53.0598ZM53.019 38.4414H52.6256V39.6996H52.9219C53.1875 39.6996 53.3919 39.6505 53.5349 39.5522C53.6814 39.4505 53.7546 39.2855 53.7546 39.0574C53.7546 38.8503 53.695 38.6959 53.5758 38.5941C53.4566 38.4923 53.271 38.4414 53.019 38.4414Z" fill="#939393"/>
    <path d="M60.233 39.7576C60.233 40.1471 60.17 40.4876 60.044 40.7789C59.9214 41.0667 59.7324 41.2913 59.4769 41.4528C59.2215 41.6142 58.9014 41.6949 58.5165 41.6949C58.1249 41.6949 57.803 41.6142 57.551 41.4528C57.299 41.2913 57.11 41.0649 56.9839 40.7736C56.8613 40.4823 56.8 40.1419 56.8 39.7523C56.8 39.3662 56.8613 39.0293 56.9839 38.7415C57.11 38.4502 57.299 38.2256 57.551 38.0676C57.8064 37.9062 58.13 37.8254 58.5216 37.8254C58.9065 37.8254 59.2249 37.9062 59.4769 38.0676C59.7324 38.2256 59.9214 38.4502 60.044 38.7415C60.17 39.0293 60.233 39.368 60.233 39.7576ZM57.4897 39.7576C57.4897 40.1822 57.5714 40.5157 57.7349 40.7578C57.9018 41 58.1623 41.1211 58.5165 41.1211C58.8809 41.1211 59.1432 41 59.3033 40.7578C59.4633 40.5157 59.5434 40.1822 59.5434 39.7576C59.5434 39.3329 59.4633 38.9995 59.3033 38.7573C59.1432 38.5151 58.8826 38.394 58.5216 38.394C58.164 38.394 57.9018 38.5151 57.7349 38.7573C57.5714 38.9995 57.4897 39.3329 57.4897 39.7576Z" fill="#939393"/>
    <path d="M63.8859 37.8834C64.3661 37.8834 64.7203 37.9746 64.9485 38.1571C65.18 38.3396 65.2958 38.6169 65.2958 38.9889C65.2958 39.1714 65.2618 39.3276 65.1937 39.4575C65.129 39.5873 65.0421 39.6961 64.9331 39.7839C64.8276 39.8681 64.7152 39.9366 64.596 39.9892L65.6432 41.6423H64.9076L64.034 40.1577H63.5027V41.6423H62.8488V37.8834H63.8859ZM63.845 38.4467H63.5027V39.6049H63.8654C64.1379 39.6049 64.3337 39.5557 64.4529 39.4575C64.5721 39.3557 64.6317 39.2065 64.6317 39.01C64.6317 38.8064 64.567 38.6625 64.4376 38.5783C64.3116 38.4905 64.1141 38.4467 63.845 38.4467Z" fill="#939393"/>
    <path d="M68.6342 41.6423H67.9905V37.8834H70.0595V38.4467H68.6342V39.5522H69.9625V40.1156H68.6342V41.6423Z" fill="#939393"/>
    <path d="M75.8378 39.7576C75.8378 40.1471 75.7748 40.4876 75.6488 40.7789C75.5262 41.0667 75.3372 41.2913 75.0817 41.4528C74.8263 41.6142 74.5062 41.6949 74.1213 41.6949C73.7296 41.6949 73.4078 41.6142 73.1558 41.4528C72.9038 41.2913 72.7147 41.0649 72.5887 40.7736C72.4661 40.4823 72.4048 40.1419 72.4048 39.7523C72.4048 39.3662 72.4661 39.0293 72.5887 38.7415C72.7147 38.4502 72.9038 38.2256 73.1558 38.0676C73.4112 37.9062 73.7348 37.8254 74.1264 37.8254C74.5113 37.8254 74.8297 37.9062 75.0817 38.0676C75.3372 38.2256 75.5262 38.4502 75.6488 38.7415C75.7748 39.0293 75.8378 39.368 75.8378 39.7576ZM73.0945 39.7576C73.0945 40.1822 73.1762 40.5157 73.3397 40.7578C73.5066 41 73.7671 41.1211 74.1213 41.1211C74.4857 41.1211 74.748 41 74.908 40.7578C75.0681 40.5157 75.1481 40.1822 75.1481 39.7576C75.1481 39.3329 75.0681 38.9995 74.908 38.7573C74.748 38.5151 74.4874 38.394 74.1264 38.394C73.7688 38.394 73.5066 38.5151 73.3397 38.7573C73.1762 38.9995 73.0945 39.3329 73.0945 39.7576Z" fill="#939393"/>
    <path d="M78.4536 41.6423V37.8834H79.1075V41.0737H80.6299V41.6423H78.4536Z" fill="#939393"/>
    <path d="M84.3377 41.6423H82.8051V41.258L83.2445 41.0895V38.4414L82.8051 38.2677V37.8834H84.3377V38.2677L83.8984 38.4414V41.0895L84.3377 41.258V41.6423Z" fill="#939393"/>
    <path d="M90.0906 39.7576C90.0906 40.1471 90.0276 40.4876 89.9016 40.7789C89.779 41.0667 89.59 41.2913 89.3345 41.4528C89.0791 41.6142 88.759 41.6949 88.3741 41.6949C87.9824 41.6949 87.6606 41.6142 87.4086 41.4528C87.1566 41.2913 86.9675 41.0649 86.8415 40.7736C86.7189 40.4823 86.6576 40.1419 86.6576 39.7523C86.6576 39.3662 86.7189 39.0293 86.8415 38.7415C86.9675 38.4502 87.1566 38.2256 87.4086 38.0676C87.664 37.9062 87.9875 37.8254 88.3792 37.8254C88.7641 37.8254 89.0825 37.9062 89.3345 38.0676C89.59 38.2256 89.779 38.4502 89.9016 38.7415C90.0276 39.0293 90.0906 39.368 90.0906 39.7576ZM87.3473 39.7576C87.3473 40.1822 87.429 40.5157 87.5925 40.7578C87.7594 41 88.0199 41.1211 88.3741 41.1211C88.7385 41.1211 89.0008 41 89.1608 40.7578C89.3209 40.5157 89.4009 40.1822 89.4009 39.7576C89.4009 39.3329 89.3209 38.9995 89.1608 38.7573C89.0008 38.5151 88.7402 38.394 88.3792 38.394C88.0216 38.394 87.7594 38.5151 87.5925 38.7573C87.429 38.9995 87.3473 39.3329 87.3473 39.7576Z" fill="#939393"/>
    <path d="M100.24 37.8834L99.2953 41.6423H98.575L97.9977 39.4838C97.9807 39.4136 97.9585 39.3241 97.9313 39.2153C97.9075 39.103 97.8836 38.9959 97.8598 38.8942C97.8393 38.7889 97.8274 38.7099 97.824 38.6573C97.8172 38.7099 97.8036 38.7889 97.7831 38.8942C97.7627 38.9959 97.7406 39.103 97.7167 39.2153C97.6929 39.3241 97.6708 39.4171 97.6503 39.4943L97.0884 41.6423H96.363L95.423 37.8834H96.0769L96.5775 40.0261C96.6014 40.1173 96.6235 40.2208 96.6439 40.3367C96.6678 40.4525 96.6899 40.5683 96.7103 40.6841C96.7308 40.7964 96.7461 40.8947 96.7563 40.979C96.7665 40.8877 96.7819 40.7859 96.8023 40.6736C96.8227 40.5578 96.8432 40.4455 96.8636 40.3367C96.8874 40.2244 96.9113 40.1296 96.9351 40.0524L97.5073 37.8834H98.1407L98.7231 40.0576C98.747 40.1384 98.7708 40.2349 98.7946 40.3472C98.8185 40.4595 98.8406 40.5718 98.8611 40.6841C98.8815 40.7964 98.8968 40.8947 98.907 40.979C98.9173 40.8947 98.9326 40.7964 98.953 40.6841C98.9734 40.5683 98.9956 40.4542 99.0194 40.3419C99.0433 40.2261 99.0654 40.1208 99.0858 40.0261L99.5865 37.8834H100.24Z" fill="#939393"/>
    <path d="M104.655 41.6423H102.581V37.8834H104.655V38.4467H103.235V39.4048H104.563V39.9681H103.235V41.0737H104.655V41.6423Z" fill="#939393"/>
    <path d="M107.268 37.8834H108.367C108.84 37.8834 109.198 37.9535 109.44 38.0939C109.685 38.2343 109.807 38.4783 109.807 38.8257C109.807 39.0433 109.755 39.2258 109.649 39.3732C109.544 39.5171 109.392 39.6084 109.194 39.647V39.6733C109.327 39.7014 109.446 39.747 109.552 39.8102C109.661 39.8734 109.748 39.9664 109.813 40.0892C109.877 40.2086 109.91 40.3665 109.91 40.563C109.91 40.9035 109.792 41.1685 109.557 41.358C109.322 41.5475 109.004 41.6423 108.602 41.6423H107.268V37.8834ZM107.922 39.4154H108.454C108.713 39.4154 108.89 39.3732 108.985 39.289C109.084 39.2013 109.133 39.0767 109.133 38.9152C109.133 38.7468 109.074 38.6257 108.954 38.552C108.839 38.4783 108.655 38.4414 108.403 38.4414H107.922V39.4154ZM107.922 39.9576V41.079H108.515C108.781 41.079 108.965 41.0263 109.067 40.921C109.172 40.8122 109.225 40.6719 109.225 40.4999C109.225 40.3349 109.171 40.2033 109.062 40.105C108.956 40.0068 108.764 39.9576 108.484 39.9576H107.922Z" fill="#939393"/>
    <path d="M114.62 40.6157C114.62 40.9491 114.503 41.2124 114.268 41.4054C114.033 41.5984 113.707 41.6949 113.292 41.6949C112.89 41.6949 112.549 41.6248 112.27 41.4844V40.8526C112.423 40.9228 112.592 40.9877 112.776 41.0474C112.963 41.1036 113.151 41.1316 113.338 41.1316C113.559 41.1316 113.719 41.0878 113.818 41C113.92 40.9088 113.971 40.7929 113.971 40.6525C113.971 40.4981 113.907 40.3753 113.777 40.284C113.648 40.1893 113.459 40.0875 113.21 39.9787C113.06 39.9155 112.916 39.8383 112.776 39.747C112.64 39.6523 112.527 39.5347 112.439 39.3943C112.354 39.2504 112.311 39.0714 112.311 38.8573C112.311 38.5379 112.42 38.287 112.638 38.1045C112.859 37.922 113.154 37.8307 113.522 37.8307C113.712 37.8307 113.893 37.8518 114.063 37.8939C114.237 37.936 114.407 37.9957 114.574 38.0729L114.365 38.6151C114.211 38.5484 114.065 38.4958 113.925 38.4572C113.789 38.4186 113.648 38.3993 113.501 38.3993C113.324 38.3993 113.19 38.4396 113.098 38.5204C113.006 38.6011 112.96 38.7081 112.96 38.8415C112.96 38.9433 112.985 39.031 113.036 39.1047C113.088 39.1749 113.166 39.2399 113.271 39.2995C113.38 39.3592 113.52 39.4276 113.69 39.5049C113.888 39.5926 114.055 39.6856 114.191 39.7839C114.331 39.8786 114.436 39.9927 114.508 40.1261C114.583 40.2559 114.62 40.4191 114.62 40.6157Z" fill="#939393"/>
    <path d="M118.384 41.6423H116.852V41.258L117.291 41.0895V38.4414L116.852 38.2677V37.8834H118.384V38.2677L117.945 38.4414V41.0895L118.384 41.258V41.6423Z" fill="#939393"/>
    <path d="M122.186 41.6423H121.532V38.4519H120.484V37.8834H123.233V38.4519H122.186V41.6423Z" fill="#939393"/>
    <path d="M127.704 41.6423H125.63V37.8834H127.704V38.4467H126.284V39.4048H127.612V39.9681H126.284V41.0737H127.704V41.6423Z" fill="#939393"/>
</svg>
